<?xml version="1.0" encoding="utf-8"?><svg xmlns="http://www.w3.org/2000/svg" xmlns:xlink="http://www.w3.org/1999/xlink"><symbol id="icon-image" fill="currentColor" class="bi bi-image" viewBox="0 0 16 16"> <path d="M6.002 5.5a1.5 1.5 0 1 1-3 0 1.5 1.5 0 0 1 3 0z"/> <path d="M2.002 1a2 2 0 0 0-2 2v10a2 2 0 0 0 2 2h12a2 2 0 0 0 2-2V3a2 2 0 0 0-2-2h-12zm12 1a1 1 0 0 1 1 1v6.5l-3.777-1.947a.5.5 0 0 0-.577.093l-3.71 3.71-2.66-1.772a.5.5 0 0 0-.63.062L1.002 12V3a1 1 0 0 1 1-1h12z"/> </symbol><symbol id="icon-audio" fill="currentColor" class="bi bi-soundwave" viewBox="0 0 16 16"> <path fill-rule="evenodd" d="M8.5 2a.5.5 0 0 1 .5.5v11a.5.5 0 0 1-1 0v-11a.5.5 0 0 1 .5-.5zm-2 2a.5.5 0 0 1 .5.5v7a.5.5 0 0 1-1 0v-7a.5.5 0 0 1 .5-.5zm4 0a.5.5 0 0 1 .5.5v7a.5.5 0 0 1-1 0v-7a.5.5 0 0 1 .5-.5zm-6 1.5A.5.5 0 0 1 5 6v4a.5.5 0 0 1-1 0V6a.5.5 0 0 1 .5-.5zm8 0a.5.5 0 0 1 .5.5v4a.5.5 0 0 1-1 0V6a.5.5 0 0 1 .5-.5zm-10 1A.5.5 0 0 1 3 7v2a.5.5 0 0 1-1 0V7a.5.5 0 0 1 .5-.5zm12 0a.5.5 0 0 1 .5.5v2a.5.5 0 0 1-1 0V7a.5.5 0 0 1 .5-.5z"/> </symbol><symbol id="icon-video" fill="currentColor" class="bi bi-film" viewBox="0 0 16 16"> <path d="M0 1a1 1 0 0 1 1-1h14a1 1 0 0 1 1 1v14a1 1 0 0 1-1 1H1a1 1 0 0 1-1-1V1zm4 0v6h8V1H4zm8 8H4v6h8V9zM1 1v2h2V1H1zm2 3H1v2h2V4zM1 7v2h2V7H1zm2 3H1v2h2v-2zm-2 3v2h2v-2H1zM15 1h-2v2h2V1zm-2 3v2h2V4h-2zm2 3h-2v2h2V7zm-2 3v2h2v-2h-2zm2 3h-2v2h2v-2z"/> </symbol><symbol id="icon-pdf" fill="currentColor" class="bi bi-file-richtext" viewBox="0 0 16 16"> <path d="M7 4.25a.75.75 0 1 1-1.5 0 .75.75 0 0 1 1.5 0zm-.861 1.542 1.33.886 1.854-1.855a.25.25 0 0 1 .289-.047l1.888.974V7.5a.5.5 0 0 1-.5.5H5a.5.5 0 0 1-.5-.5V7s1.54-1.274 1.639-1.208zM5 9a.5.5 0 0 0 0 1h6a.5.5 0 0 0 0-1H5zm0 2a.5.5 0 0 0 0 1h3a.5.5 0 0 0 0-1H5z"/> <path d="M2 2a2 2 0 0 1 2-2h8a2 2 0 0 1 2 2v12a2 2 0 0 1-2 2H4a2 2 0 0 1-2-2V2zm10-1H4a1 1 0 0 0-1 1v12a1 1 0 0 0 1 1h8a1 1 0 0 0 1-1V2a1 1 0 0 0-1-1z"/> </symbol><symbol id="icon-record" fill="currentColor" class="bi bi-file-text" viewBox="0 0 16 16"> <path d="M5 4a.5.5 0 0 0 0 1h6a.5.5 0 0 0 0-1H5zm-.5 2.5A.5.5 0 0 1 5 6h6a.5.5 0 0 1 0 1H5a.5.5 0 0 1-.5-.5zM5 8a.5.5 0 0 0 0 1h6a.5.5 0 0 0 0-1H5zm0 2a.5.5 0 0 0 0 1h3a.5.5 0 0 0 0-1H5z"/> <path d="M2 2a2 2 0 0 1 2-2h8a2 2 0 0 1 2 2v12a2 2 0 0 1-2 2H4a2 2 0 0 1-2-2V2zm10-1H4a1 1 0 0 0-1 1v12a1 1 0 0 0 1 1h8a1 1 0 0 0 1-1V2a1 1 0 0 0-1-1z"/> </symbol><symbol id="icon-panorama" fill="currentColor" class="bi bi-image-alt" viewBox="0 0 16 16"> <path d="M7 2.5a2.5 2.5 0 1 1-5 0 2.5 2.5 0 0 1 5 0zm4.225 4.053a.5.5 0 0 0-.577.093l-3.71 4.71-2.66-2.772a.5.5 0 0 0-.63.062L.002 13v2a1 1 0 0 0 1 1h14a1 1 0 0 0 1-1v-4.5l-4.777-3.947z"/> </symbol><symbol id="icon-compound-object" fill="currentColor" class="bi bi-collection" viewBox="0 0 16 16"> <path d="M2.5 3.5a.5.5 0 0 1 0-1h11a.5.5 0 0 1 0 1h-11zm2-2a.5.5 0 0 1 0-1h7a.5.5 0 0 1 0 1h-7zM0 13a1.5 1.5 0 0 0 1.5 1.5h13A1.5 1.5 0 0 0 16 13V6a1.5 1.5 0 0 0-1.5-1.5h-13A1.5 1.5 0 0 0 0 6v7zm1.5.5A.5.5 0 0 1 1 13V6a.5.5 0 0 1 .5-.5h13a.5.5 0 0 1 .5.5v7a.5.5 0 0 1-.5.5h-13z"/> </symbol><symbol id="icon-multiple" fill="currentColor" class="bi bi-postcard" viewBox="0 0 16 16"> <path fill-rule="evenodd" d="M2 2a2 2 0 0 0-2 2v8a2 2 0 0 0 2 2h12a2 2 0 0 0 2-2V4a2 2 0 0 0-2-2H2ZM1 4a1 1 0 0 1 1-1h12a1 1 0 0 1 1 1v8a1 1 0 0 1-1 1H2a1 1 0 0 1-1-1V4Zm7.5.5a.5.5 0 0 0-1 0v7a.5.5 0 0 0 1 0v-7ZM2 5.5a.5.5 0 0 1 .5-.5H6a.5.5 0 0 1 0 1H2.5a.5.5 0 0 1-.5-.5Zm0 2a.5.5 0 0 1 .5-.5H6a.5.5 0 0 1 0 1H2.5a.5.5 0 0 1-.5-.5Zm0 2a.5.5 0 0 1 .5-.5H6a.5.5 0 0 1 0 1H2.5a.5.5 0 0 1-.5-.5ZM10.5 5a.5.5 0 0 0-.5.5v3a.5.5 0 0 0 .5.5h3a.5.5 0 0 0 .5-.5v-3a.5.5 0 0 0-.5-.5h-3ZM13 8h-2V6h2v2Z"/> </symbol><symbol id="icon-default" fill="currentColor" class="bi bi-file-earmark" viewBox="0 0 16 16"> <path d="M14 4.5V14a2 2 0 0 1-2 2H4a2 2 0 0 1-2-2V2a2 2 0 0 1 2-2h5.5L14 4.5zm-3 0A1.5 1.5 0 0 1 9.5 3V1H4a1 1 0 0 0-1 1v12a1 1 0 0 0 1 1h8a1 1 0 0 0 1-1V4.5h-2z"/> </symbol><symbol id="icon-back-to-top" fill="currentColor" class="bi bi-arrow-up-square" viewBox="0 0 16 16"> <path fill-rule="evenodd" d="M15 2a1 1 0 0 0-1-1H2a1 1 0 0 0-1 1v12a1 1 0 0 0 1 1h12a1 1 0 0 0 1-1V2zM0 2a2 2 0 0 1 2-2h12a2 2 0 0 1 2 2v12a2 2 0 0 1-2 2H2a2 2 0 0 1-2-2V2zm8.5 9.5a.5.5 0 0 1-1 0V5.707L5.354 7.854a.5.5 0 1 1-.708-.708l3-3a.5.5 0 0 1 .708 0l3 3a.5.5 0 0 1-.708.708L8.5 5.707V11.5z"/> </symbol><symbol id="arrow-left" fill="currentColor" class="bi bi-arrow-left" viewBox="0 0 16 16"> <path fill-rule="evenodd" d="M15 8a.5.5 0 0 0-.5-.5H2.707l3.147-3.146a.5.5 0 1 0-.708-.708l-4 4a.5.5 0 0 0 0 .708l4 4a.5.5 0 0 0 .708-.708L2.707 8.5H14.5A.5.5 0 0 0 15 8z"/> </symbol><symbol id="arrow-right" fill="currentColor" class="bi bi-arrow-right" viewBox="0 0 16 16"> <path fill-rule="evenodd" d="M1 8a.5.5 0 0 1 .5-.5h11.793l-3.147-3.146a.5.5 0 0 1 .708-.708l4 4a.5.5 0 0 1 0 .708l-4 4a.5.5 0 0 1-.708-.708L13.293 8.5H1.5A.5.5 0 0 1 1 8z"/> </symbol><symbol id="arrow-down" fill="currentColor" class="bi bi-arrow-down" viewBox="0 0 16 16"> <path fill-rule="evenodd" d="M8 1a.5.5 0 0 1 .5.5v11.793l3.146-3.147a.5.5 0 0 1 .708.708l-4 4a.5.5 0 0 1-.708 0l-4-4a.5.5 0 0 1 .708-.708L7.5 13.293V1.5A.5.5 0 0 1 8 1z"/> </symbol></svg>
