<?xml version="1.0" encoding="UTF-8"?>
<svg xmlns="http://www.w3.org/2000/svg" viewBox="0 0 427.96 481.31">
  <g id="zone-Books">
    <polygon id="Books_QD_to_SK" points="168.52 201.12 168.52 193.44 142.58 193.44 142.58 201.12 142.58 202.22 142.58 414 184.58 414 184.58 201.12 168.52 201.12" fill="#034441"/>
    <polygon id="Books_QA_to_QD" points="233.3 299.04 207.86 299.04 207.86 362.72 207.86 365.32 207.86 414.48 228.4 414.48 228.4 365.32 233.3 365.32 233.3 299.04" fill="#034441"/>
    <rect id="Books_PS_to_Q" x="208.34" y="114.72" width="24.72" height="77.28" fill="#034441"/>
    <polygon id="Books_PN_to_PS" points="276.04 114.72 246.8 114.72 246.8 346.29 246.8 349.74 246.8 351.05 237.76 351.05 237.76 379.2 261.42 379.2 261.42 355.33 261.42 351.05 261.42 349.74 276.04 349.74 276.04 114.72" fill="#034441"/>
    <polygon id="Books_M_to_PN" points="312.85 147.79 312.85 132 288.98 132 288.98 147.79 288.98 151.38 288.98 312.83 332.9 312.83 332.9 147.79 312.85 147.79" fill="#034441"/>
    <polygon id="Books_H_to_M" points="404.51 86.41 404.42 86.41 404.42 62.4 404.42 48.64 357.86 48.64 357.86 62.4 368.63 62.4 368.63 89.05 381.14 89.05 381.14 139.42 357.86 139.42 357.86 309.44 404.42 309.44 404.42 146.74 404.51 146.74 404.51 86.41" fill="#034441"/>
    <rect id="Oversize_Books_A_to_Z" x="357.86" y="312.83" width="46.64" height="28.99" fill="#034441"/>
  </g>
  <g id="zone-Resources">
    <rect id="Microforms" x="362.18" y="381.84" width="42.32" height="28.8" fill="teal"/>
    <rect id="Library_Computer" x="338.9" y="347.52" width="6.96" height="3.12" fill="teal"/>
    <rect id="LPs_CDs_CD-ROMs" x="306.26" y="112.8" width="32.88" height="5.28" fill="teal"/>
    <polygon id="Microform_Readers" points="348.51 386.64 348.51 381.84 347.06 381.84 346.7 381.84 338.9 381.84 338.9 384.96 346.7 384.96 346.7 390.13 347.06 390.13 348.51 390.13 359.82 390.13 359.82 386.64 348.51 386.64" fill="teal"/>
  </g>
  <g id="zone-Restrooms">
    <polygon id="Womens" points="277.69 375.54 277.69 367.57 270.74 367.57 270.74 375.54 270.74 376.68 270.74 423.96 287.35 423.96 287.35 375.54 277.69 375.54" fill="#ab4700"/>
    <polygon id="Mens" points="300.78 375.48 300.78 368.11 294.23 368.11 294.23 375.48 288.98 375.48 288.98 423.63 305.94 423.63 305.94 375.48 300.78 375.48" fill="#ab4700"/>
    <g id="RestroomIcons">
      <path d="M274.94,392.25c0,.22-.06.36-.2.52-.14.15-.21.2-.4.25-.21.06-.4.03-.6-.1-.33-.19-.47-.64-.31-1,.13-.28.41-.46.72-.46.24,0,.39.06.56.23.17.18.23.32.23.55Z" fill="#fff"/>
      <path d="M276.38,396.39c0,.16-.1.3-.25.34-.11.03-.27-.02-.34-.12-.03-.04-.19-.53-.35-1.1s-.31-1.05-.32-1.08c0-.03-.04-.04-.1-.04-.05,0-.08,0-.08.01s.24.82.52,1.81c.29.99.52,1.81.52,1.81s-.22.01-.49.01h-.49v1.45c-.01,1.42-.01,1.45-.06,1.51-.13.18-.31.22-.5.13-.21-.11-.2-.03-.2-1.66v-1.43h-.22v1.43c0,1.56,0,1.54-.14,1.64-.09.07-.28.09-.38.04-.1-.05-.18-.14-.21-.24-.01-.05-.02-.64-.02-1.48v-1.39h-.49c-.27,0-.49,0-.49-.01,0,0,.98-3.42,1.04-3.6.01-.03,0-.04-.07-.04h-.08l-.25.86c-.39,1.31-.39,1.31-.48,1.4-.07.07-.1.08-.2.08-.21,0-.35-.14-.35-.33,0-.09.71-2.44.79-2.58.13-.26.44-.49.75-.54.17-.03,1.23-.03,1.4,0,.29.05.6.27.75.53.08.13.79,2.47.79,2.6Z" fill="#fff"/>
      <path d="M283.8,399.66c-.5.89-1.6,1.52-2.88,1.52-1.75,0-3.17-1.15-3.17-2.56,0-.92.6-1.71,1.5-2.16l.05.63c-.53.37-.88.92-.88,1.53,0,1.12,1.12,2.02,2.5,2.02,1.2,0,2.2-.69,2.44-1.61l.45.62Z" fill="#fff"/>
      <path d="M285.15,400.01c-.23.11-.54.04-.68-.14l-1.12-1.56h-2.73c-.45,0-.82-.26-.86-.62l-.15-2.07c-.02-.36.32-.67.77-.7.45-.02.83.26.86.62l.05.58h1.58c.21,0,.38.14.38.31s-.17.3-.38.31h-1.53l.02.51h2.11c.16,0,.32.07.41.19l1.44,2.01c.13.2.06.43-.17.54Z" fill="#fff"/>
      <path d="M280.67,394.71c-.18.04-.24.04-.42,0-.18-.04-.28-.09-.41-.21-.29-.25-.28-.65,0-.91.35-.31.99-.29,1.3.05.36.4.12.94-.47,1.07Z" fill="#fff"/>
      <path d="M301.76,400.62c-.44.79-1.41,1.34-2.55,1.34-1.55,0-2.8-1.02-2.8-2.27,0-.81.53-1.52,1.32-1.92l.04.56c-.47.33-.78.81-.78,1.36,0,.99.99,1.79,2.22,1.79,1.07,0,1.95-.61,2.16-1.42l.39.55Z" fill="#fff"/>
      <path d="M302.96,400.92c-.21.1-.48.04-.6-.12l-.99-1.38h-2.42c-.39,0-.73-.23-.76-.55l-.13-1.83c-.02-.32.28-.6.68-.62.4-.02.73.23.76.55l.05.52h1.4c.19,0,.34.12.34.27s-.15.27-.34.28h-1.36l.02.46h1.87c.14,0,.28.06.36.17l1.27,1.78c.12.17.06.38-.15.48Z" fill="#fff"/>
      <path d="M298.99,396.24c-.16.03-.21.03-.37,0-.16-.03-.25-.08-.37-.18-.25-.22-.25-.58,0-.81.31-.28.88-.26,1.15.05.32.35.11.84-.42.95Z" fill="#fff"/>
      <path d="M293.24,392.1c-.19.05-.26.05-.45,0-.19-.05-.3-.12-.44-.27-.31-.33-.31-.87,0-1.21.38-.42,1.07-.38,1.4.07.39.53.13,1.25-.51,1.42Z" fill="#fff"/>
      <path d="M295.14,394.96c0,1.42,0,1.53-.05,1.62-.14.26-.56.26-.68,0-.04-.09-.05-.22-.05-1.43v-1.33h-.17v3.62s-.01,3.62-.01,3.62l-.08.13c-.21.36-.8.31-.94-.07-.02-.05-.03-.77-.03-2.23v-2.15h-.17v2.07c0,1.38-.01,2.11-.03,2.21-.04.17-.14.3-.29.37-.13.06-.33.07-.45.01-.1-.05-.22-.17-.26-.28-.02-.05-.03-1.21-.03-3.69v-3.61h-.2v1.35c0,1.3,0,1.35-.06,1.44-.14.24-.54.22-.68-.02-.05-.09-.05-.18-.04-1.7,0-1.57,0-1.61.07-1.75.13-.32.39-.57.7-.69.15-.06.22-.06,1.21-.07,1.12,0,1.31,0,1.56.12.19.09.43.31.53.49.16.29.16.33.16,1.99Z" fill="#fff"/>
    </g>
  </g>
  <g id="zone-NonPublic">
    <rect id="Study_Carrells" x="201.63" y="249.66" width="36.16" height="35.6" fill="#b2ab9a"/>
  </g>
  <g id="zone-Study">
    <rect id="Individual_Study_Windows" x="407.74" y="49.68" width="6.25" height="329.04" fill="#d7003f"/>
    <rect id="Individual_Study" x="131.06" y="180" width="7.44" height="207.12" fill="#d7003f"/>
  </g>
  <g id="zone-Collaboration">
    <rect id="Group_Study_Rooms_2" x="222.08" y="201.34" width="16.02" height="36.1" fill="#9d99d1"/>
    <rect id="Group_Study_Rooms_1" x="237.62" y="387.12" width="31.53" height="14.62" fill="#9d99d1"/>
  </g>
  <g id="Text">
    <text id="Microforms-lable" transform="translate(364.43 407.09)" fill="#fff" font-family="PublicSans-Bold, &apos;Public Sans&apos;" font-size="7" font-weight="700"><tspan x="0" y="0">Microforms</tspan></text>
    <text transform="translate(189.59 295.03)" font-family="PublicSans-Bold, &apos;Public Sans&apos;" font-size="8" font-weight="700"><tspan x="0" y="0">Study Carrels</tspan></text>
    <text transform="translate(359.39 325.19)" fill="#fff" font-family="PublicSans-Bold, &apos;Public Sans&apos;" font-size="8" font-weight="700"><tspan x="0" y="0">Oversize </tspan><tspan x="0" y="9.6">Books A-Z</tspan></text>
    <text transform="translate(146.26 201.43)" fill="#fff" font-family="PublicSans-Bold, &apos;Public Sans&apos;" font-size="8" font-weight="700"><tspan x="0" y="0">SK</tspan><tspan x="0" y="23">SD</tspan><tspan x="0" y="46">SB</tspan><tspan x="0" y="69">S</tspan><tspan x="0" y="92">R</tspan><tspan x="0" y="115">QP</tspan><tspan x="0" y="138">QL</tspan><tspan x="0" y="161">QH</tspan><tspan x="0" y="184">QE</tspan><tspan x="0" y="207">QD</tspan></text>
    <text transform="translate(387.22 58.15)" fill="#fff" font-family="PublicSans-Bold, &apos;Public Sans&apos;" font-size="8" font-weight="700"><tspan x="0" y="0">M</tspan><tspan x="0" y="35">LB</tspan><tspan x="0" y="70">KF</tspan><tspan x="0" y="105">JV</tspan><tspan x="0" y="140">HV</tspan><tspan x="0" y="175">HF</tspan><tspan x="0" y="210">HD</tspan><tspan x="0" y="245">H</tspan></text>
    <text transform="translate(312.82 159.43)" fill="#fff" font-family="PublicSans-Bold, &apos;Public Sans&apos;" font-size="8" font-weight="700"><tspan x="0" y="0">M</tspan><tspan x="0" y="28">ML</tspan><tspan x="0" y="56">N</tspan><tspan x="0" y="84">NA</tspan><tspan x="0" y="112">P</tspan><tspan x="0" y="140">PN</tspan></text>
    <text transform="translate(214.66 123.19)" fill="#fff" font-family="PublicSans-Bold, &apos;Public Sans&apos;" font-size="8" font-weight="700"><tspan x="0" y="0">PS</tspan><tspan x="0" y="21">PT</tspan><tspan x="0" y="42">PZ</tspan><tspan x="0" y="63">Q</tspan></text>
    <text transform="translate(213.7 309.19)" fill="#fff" font-family="PublicSans-Bold, &apos;Public Sans&apos;" font-size="8" font-weight="700"><tspan x="0" y="0">QA</tspan><tspan x="0" y="33">QB</tspan><tspan x="0" y="66">QC</tspan><tspan x="0" y="99">QD</tspan></text>
    <text transform="translate(248.02 123.19)" fill="#fff" font-family="PublicSans-Bold, &apos;Public Sans&apos;" font-size="8" font-weight="700"><tspan x="0" y="0">PS</tspan><tspan x="0" y="60">PS</tspan><tspan x="0" y="120">PR</tspan><tspan x="0" y="180">PQ</tspan><tspan x="0" y="240">PN</tspan></text>
    <text transform="translate(278.71 127.63)" font-family="PublicSans-Bold, &apos;Public Sans&apos;" font-size="8" font-weight="700"><tspan x="0" y="0">CDs/CD-ROMs</tspan></text>
    <text transform="translate(290.23 118.55)" font-family="PublicSans-Bold, &apos;Public Sans&apos;" font-size="8" font-weight="700"><tspan x="0" y="0">LPs</tspan></text>
    <text id="Library_Computer-lable" transform="translate(318.4 335.96)" font-family="PublicSans-Bold, &apos;Public Sans&apos;" font-size="8" font-weight="700"><tspan x="0" y="0">Library </tspan><tspan x="0" y="9.6">Computer</tspan></text>
    <text id="Microform_Readers-label" transform="translate(317.94 374.81)" font-family="PublicSans-Bold, &apos;Public Sans&apos;" font-size="7" font-weight="700"><tspan x="0" y="0">Microform Readers</tspan></text>
    <text id="Group_Study_Rooms-lable" transform="translate(192.01 441.73)" font-family="PublicSans-Bold, &apos;Public Sans&apos;" font-size="8" font-weight="700" stroke="#000" stroke-miterlimit="10" stroke-width=".25"><tspan x="0" y="0">Group Study Rooms</tspan></text>
    <text id="Group_Study_Rooms-label" transform="translate(119.15 168.55)" font-family="PublicSans-Bold, &apos;Public Sans&apos;" font-size="8" font-weight="700"><tspan x="0" y="0">Group Study Rooms</tspan></text>
    <text id="Title" transform="translate(2.18 25.84)" font-family="PublicSans-Black, &apos;Public Sans&apos;" font-size="30" font-weight="800"><tspan x="0" y="0">Third Floor</tspan></text>
    <text id="Subtitle" transform="translate(2.18 51.68)" font-family="PublicSans-Light, &apos;Public Sans&apos;" font-size="14" font-weight="300"><tspan x="0" y="0">Quiet Study Floor, Individual Study Areas, </tspan><tspan x="0" y="18">Oversize Books A-Z, Books H-S, CDs, LPs </tspan><tspan x="0" y="36">and Microforms</tspan></text>
  </g>
  <g id="floor_vector">
    <path d="M342.46,424.63h0v14.67s5.78,1.11,5.78,1.11l-14.51,39.63-38.35-13.35,8.79-27.29,14.49,4.96,3.77-11.37-.95-.31h0s-5.51-1.97-5.51-1.97l-.34.94,5.54,1.98-3.14,9.46-13.55-4.63,3.13-9.7,3.69,1.32.34-.94-3.72-1.33.42-1.32h.14v-68.09h-14.97v12.18h1v-2.04h5.98v7.36h5.46v47.74h-16.6v-47.74h4.66v-1h-16.49v1h9.85v47.74h-16.72v-56.02h6.37v2.22h1v-2.72h-.5v-.5h-8.35v34.84h-9.61v11.02h-21v1.1h30.62v10.05h-104.4v-1.98c-.33.01-.66.03-1,.04v1.94h-37.09c-.01.95-.02,1.9-.03,2.85h179.82s.84,0,.84,0l-13.14,40.81.33.11-.02.04,39.89,13.88.3-.87,14.94-40.79-6.11-1.17v-12.57l5.44-.07v-1.27l-6.45.07"/>
    <rect x="351.47" y="83.28" width="1" height="26.04"/>
    <polyline points="351.58 91.27 347.15 91.27 342.72 91.27" stroke="#000" stroke-miterlimit="10" stroke-width=".25"/>
    <polyline points="351.58 92.45 347.15 92.45 342.72 92.45" stroke="#000" stroke-miterlimit="10" stroke-width=".25"/>
    <polyline points="351.66 93.63 347.23 93.63 342.8 93.63" stroke="#000" stroke-miterlimit="10" stroke-width=".25"/>
    <polyline points="351.66 90.09 347.23 90.09 342.8 90.09" stroke="#000" stroke-miterlimit="10" stroke-width=".25"/>
    <polyline points="360.78 86.6 356.36 86.6 351.93 86.6" stroke="#000" stroke-miterlimit="10" stroke-width=".25"/>
    <polyline points="360.78 87.78 356.36 87.78 351.93 87.78" stroke="#000" stroke-miterlimit="10" stroke-width=".25"/>
    <polyline points="360.86 88.96 356.44 88.96 352.01 88.96" stroke="#000" stroke-miterlimit="10" stroke-width=".25"/>
    <polyline points="360.86 90.09 356.44 90.09 352.01 90.09" stroke="#000" stroke-miterlimit="10" stroke-width=".25"/>
    <polyline points="250.46 413.5 250.46 419.13 250.46 424.72" stroke="#000" stroke-miterlimit="10" stroke-width=".25"/>
    <polyline points="249.4 424.21 249.4 418.62 249.4 412.99" stroke="#000" stroke-miterlimit="10" stroke-width=".25"/>
    <polyline points="252.57 424.47 252.57 418.87 252.57 413.24" stroke="#000" stroke-miterlimit="10" stroke-width=".25"/>
    <polyline points="251.51 423.96 251.51 418.36 251.51 412.73" stroke="#000" stroke-miterlimit="10" stroke-width=".25"/>
    <path d="M312.47,472.75l-.23-.08,3.4-10.71-2.2-.78-3.42,10.78-.23-.08,3.42-10.78-7.59-2.71,2.12-6.73.23.08-2.05,6.49,10.02,3.57-3.47,10.95ZM307.56,471.16l-.23-.08,3.43-10.83.23.08-3.43,10.83ZM305.11,470.37l-.23-.08,3.44-10.83.23.08-3.44,10.83ZM317.84,454.87l-3.06-1.01,3.13-9.98v-.03s-.22-.08-.22-.08l-3.14,10.02-2.03-.67,3.13-10.01-.23-.08-3.12,9.95-.02.06-2.03-.67,3.13-10-.23-.08-3.13,10-2.03-.67,3.13-10-.23-.08-3.17,10.12-.04.12,10.07,3.34.07-.24Z"/>
    <path d="M201.63,178.5c.18-23.06.18-45.29.18-68.4h140.42V41.63c24.02,0,48.04,0,71.62-.35,0,1.78-.91,0,0,0-2.33,76.82.44,153.29-1.08,230.09l1.08,153.36-64.94-.17" fill="none" stroke="#000" stroke-miterlimit="10"/>
    <polyline points="342.15 76.12 360.86 76.12 360.86 109.32 351.47 109.32" fill="none" stroke="#000" stroke-miterlimit="10"/>
    <polyline points="252.04 401.74 252.04 407.37 252.04 412.97" stroke="#000" stroke-miterlimit="10" stroke-width=".25"/>
    <polyline points="250.99 412.97 250.99 407.37 250.99 401.74" stroke="#000" stroke-miterlimit="10" stroke-width=".25"/>
    <polyline points="254.16 412.97 254.16 407.37 254.16 401.74" stroke="#000" stroke-miterlimit="10" stroke-width=".25"/>
    <polyline points="253.1 412.97 253.1 407.37 253.1 401.74" stroke="#000" stroke-miterlimit="10" stroke-width=".25"/>
    <polyline points="214.67 285.26 201.63 285.26 201.63 248.33 238.1 248.33 238.1 285.26 226.27 285.26" fill="none" stroke="#000" stroke-miterlimit="10" stroke-width=".5"/>
    <polyline points="237.79 258.02 226.48 258.02 226.48 255.25" fill="none" stroke="#000" stroke-miterlimit="10" stroke-width=".5"/>
    <line x1="219.06" y1="248.33" x2="219.06" y2="255.25" fill="none" stroke="#000" stroke-miterlimit="10" stroke-width=".5"/>
    <line x1="237.79" y1="267.72" x2="226.48" y2="267.72" fill="none" stroke="#000" stroke-miterlimit="10" stroke-width=".5"/>
    <line x1="237.79" y1="276.72" x2="226.48" y2="276.72" fill="none" stroke="#000" stroke-miterlimit="10" stroke-width=".5"/>
    <polygon points="222.63 235.17 222.63 200.31 201.63 200.31 201.63 249.48 222.63 249.48 238.1 249.48 238.1 235.17 222.63 235.17" stroke="#000" stroke-miterlimit="10" stroke-width=".5"/>
    <line x1="222.63" y1="213.93" x2="238.1" y2="213.93" fill="none" stroke="#000" stroke-miterlimit="10"/>
    <line x1="222.63" y1="200.55" x2="238.1" y2="200.55" fill="none" stroke="#000" stroke-miterlimit="10"/>
    <line x1="237.79" y1="227.32" x2="237.79" y2="235.17" fill="none" stroke="#000" stroke-miterlimit="10"/>
    <line x1="214.67" y1="276.72" x2="201.63" y2="276.72" fill="none" stroke="#000" stroke-miterlimit="10" stroke-width=".5"/>
    <line x1="214.67" y1="267.72" x2="201.63" y2="267.72" fill="none" stroke="#000" stroke-miterlimit="10" stroke-width=".5"/>
    <polyline points="201.63 258.02 214.67 258.02 214.67 255.25" fill="none" stroke="#000" stroke-miterlimit="10" stroke-width=".5"/>
    <polyline points="269.15 401.45 237.52 401.74 240.83 401.74" fill="none" stroke="#000" stroke-miterlimit="10"/>
    <line x1="237.52" y1="396.02" x2="237.52" y2="401.74" fill="none" stroke="#000" stroke-miterlimit="10"/>
    <line x1="237.52" y1="386.63" x2="262.83" y2="386.63" fill="none" stroke="#000" stroke-miterlimit="10"/>
    <line x1="250.99" y1="401.74" x2="250.46" y2="386.63" fill="none" stroke="#000" stroke-miterlimit="10"/>
    <polyline points="201.63 177.6 201.63 179.72 131.06 179.29 131.06 424.5 138.78 424.5" fill="none" stroke="#000" stroke-miterlimit="10"/>
    <rect x="176.07" y="179.56" width="27.4" height="12.44" stroke="#000" stroke-miterlimit="10"/>
    <rect x="357.86" y="101.67" width="10.45" height="25.96"/>
    <polygon points="345.86 391.35 345.86 389.57 345.86 389.13 345.86 385.69 338.9 385.69 338.9 389.57 340.25 389.57 340.25 409.99 345.86 409.99 353.44 409.99 359.82 391.46 345.86 391.35"/>
    <rect x="338.9" y="351.38" width="6.96" height="8.79"/>
    <polyline points="256.9 394.19 232.13 431.44 244.52 394.19" fill="none" stroke="#000" stroke-miterlimit="10" stroke-width=".25"/>
    <polyline points="226.66 227.32 185.14 171.82 230.09 207.7" fill="none" stroke="#000" stroke-miterlimit="10" stroke-width=".25"/>
  </g>
</svg>