<?xml version="1.0" encoding="UTF-8"?>
<svg xmlns="http://www.w3.org/2000/svg" viewBox="0 0 404 480.23">
  <g id="zone-Admin">
    <polygon id="Library_Administration_Offices" points="398.89 338.35 397.51 338.35 395.84 338.35 379.52 338.35 379.52 343.21 324.71 343.21 324.71 423.84 398.72 423.84 398.72 344.41 398.89 344.41 398.89 338.35" fill="#552301"/>
    <polygon id="Library_Faculty_and_Staff_Offices" points="249.44 208.08 199.54 208.08 199.54 171 143 171 143 208.08 142.92 208.08 142.92 314.59 143 314.59 143 424.34 212.78 424.34 212.78 314.59 249.44 314.59 249.44 208.08" fill="#552301"/>
    <rect id="Library_TSP_Office" x="212.88" y="355.44" width="26.61" height="22.7" fill="#552301"/>
  </g>
  <g id="zone-Study">
    <rect id="Individual_Study_Spaces" x="392.92" y="55.24" width="5.52" height="248.88" fill="#d7003f"/>
  </g>
  <g id="zone-Collaboration">
    <rect id="Group_Study_Rooms" x="285.28" y="170.47" width="34.47" height="17.44" fill="#9d99d1"/>
  </g>
  <g id="zone-Restrooms">
    <polygon id="Womens" points="255.85 374.17 255.85 365.63 249.37 365.63 249.37 374.17 249.12 374.17 249.12 423.45 266.4 423.45 266.4 374.17 255.85 374.17" fill="#ab4700"/>
    <polygon id="Mens" points="280.65 373.65 280.65 365.63 272.63 365.63 272.63 373.65 267 373.65 267 423.45 284.64 423.45 284.64 373.65 280.65 373.65" fill="#ab4700"/>
    <g id="decor-RestroomIcons">
      <path d="M254.05,392.42c0,.22-.06.36-.2.52-.14.15-.21.2-.4.25-.21.06-.4.03-.6-.1-.33-.19-.47-.64-.31-1,.13-.28.41-.46.72-.46.24,0,.39.06.56.23.17.18.23.32.23.55Z" fill="#fff"/>
      <path d="M255.49,396.56c0,.16-.1.3-.25.34-.11.03-.27-.02-.34-.12-.03-.04-.19-.53-.35-1.1s-.31-1.05-.32-1.08c0-.03-.04-.04-.1-.04-.05,0-.08,0-.08.01s.24.82.52,1.81c.29.99.52,1.81.52,1.81s-.22.01-.49.01h-.49v1.45c-.01,1.42-.01,1.45-.06,1.51-.13.18-.31.22-.5.13-.21-.11-.2-.03-.2-1.66v-1.43h-.22v1.43c0,1.56,0,1.54-.14,1.64-.09.07-.28.09-.38.04-.1-.05-.18-.14-.21-.24-.01-.05-.02-.64-.02-1.48v-1.39h-.49c-.27,0-.49,0-.49-.01,0,0,.98-3.42,1.04-3.6.01-.03,0-.04-.07-.04h-.08l-.25.86c-.39,1.31-.39,1.31-.48,1.4-.07.07-.1.08-.2.08-.21,0-.35-.14-.35-.33,0-.09.71-2.44.79-2.58.13-.26.44-.49.75-.54.17-.03,1.23-.03,1.4,0,.29.05.6.27.75.53.08.13.79,2.47.79,2.6Z" fill="#fff"/>
      <path d="M262.91,399.83c-.5.89-1.6,1.52-2.88,1.52-1.75,0-3.17-1.15-3.17-2.56,0-.92.6-1.71,1.5-2.16l.05.63c-.53.37-.88.92-.88,1.53,0,1.12,1.12,2.02,2.5,2.02,1.2,0,2.2-.69,2.44-1.61l.45.62Z" fill="#fff"/>
      <path d="M264.26,400.17c-.23.11-.54.04-.68-.14l-1.12-1.56h-2.73c-.45,0-.82-.26-.86-.62l-.15-2.07c-.02-.36.32-.67.77-.7.45-.02.83.26.86.62l.05.58h1.58c.21,0,.38.14.38.31s-.17.3-.38.31h-1.53l.02.51h2.11c.16,0,.32.07.41.19l1.44,2.01c.13.2.06.43-.17.54Z" fill="#fff"/>
      <path d="M259.77,394.88c-.18.04-.24.04-.42,0-.18-.04-.28-.09-.41-.21-.29-.25-.28-.65,0-.91.35-.31.99-.29,1.3.05.36.4.12.94-.47,1.07Z" fill="#fff"/>
      <path d="M280.87,400.79c-.44.79-1.41,1.34-2.55,1.34-1.55,0-2.8-1.02-2.8-2.27,0-.81.53-1.52,1.32-1.92l.04.56c-.47.33-.78.81-.78,1.36,0,.99.99,1.79,2.22,1.79,1.07,0,1.95-.61,2.16-1.42l.39.55Z" fill="#fff"/>
      <path d="M282.07,401.09c-.21.1-.48.04-.6-.12l-.99-1.38h-2.42c-.39,0-.73-.23-.76-.55l-.13-1.83c-.02-.32.28-.6.68-.62.4-.02.73.23.76.55l.05.52h1.4c.19,0,.34.12.34.27s-.15.27-.34.28h-1.36l.02.46h1.87c.14,0,.28.06.36.17l1.27,1.78c.12.17.06.38-.15.48Z" fill="#fff"/>
      <path d="M278.1,396.41c-.16.03-.21.03-.37,0-.16-.03-.25-.08-.37-.18-.25-.22-.25-.58,0-.81.31-.28.88-.26,1.15.05.32.35.11.84-.42.95Z" fill="#fff"/>
      <path d="M272.35,392.27c-.19.05-.26.05-.45,0-.19-.05-.3-.12-.44-.27-.31-.33-.31-.87,0-1.21.38-.42,1.07-.38,1.4.07.39.53.13,1.25-.51,1.42Z" fill="#fff"/>
      <path d="M274.25,395.13c0,1.42,0,1.53-.05,1.62-.14.26-.56.26-.68,0-.04-.09-.05-.22-.05-1.43v-1.33h-.17v3.62s-.01,3.62-.01,3.62l-.08.13c-.21.36-.8.31-.94-.07-.02-.05-.03-.77-.03-2.23v-2.15h-.17v2.07c0,1.38-.01,2.11-.03,2.21-.04.17-.14.3-.29.37-.13.06-.33.07-.45.01-.1-.05-.22-.17-.26-.28-.02-.05-.03-1.21-.03-3.69v-3.61h-.2v1.35c0,1.3,0,1.35-.06,1.44-.14.24-.54.22-.68-.02-.05-.09-.05-.18-.04-1.7,0-1.57,0-1.61.07-1.75.13-.32.39-.57.7-.69.15-.06.22-.06,1.21-.07,1.12,0,1.31,0,1.56.12.19.09.43.31.53.49.16.29.16.33.16,1.99Z" fill="#fff"/>
    </g>
  </g>
  <g id="zone-Books">
    <polygon id="Books_A_to_E" points="385.2 136.72 385.2 61.29 355.86 61.29 355.86 129.14 339.16 129.14 339.16 225.87 326.52 225.87 326.52 308.35 385.2 308.35 385.2 225.87 384.99 225.87 384.99 136.72 385.2 136.72" fill="#034441"/>
    <polygon id="Books_E_to_GV" points="312 194.06 291.08 194.06 291.08 240.65 262.8 240.65 262.8 307.29 307.76 307.29 307.76 242.74 312 242.74 312 194.06" fill="#034441"/>
  </g>
  <g id="zone-Resources">
    <rect id="Student_Computer_Lab" x="260.16" y="310.08" width="59.28" height="35.76" fill="teal"/>
    <rect id="Library_Computer" x="314.96" y="401.14" width="3.48" height="7.28" fill="teal"/>
    <rect id="Boise_Cascade_Assistive_Technology_Room" x="212.88" y="315.6" width="36.24" height="39.36" fill="teal"/>
    <polygon id="Research_Computing_and_Data_Services" points="199.54 170.54 199.54 207.82 249.44 207.82 249.44 235.65 284.8 235.65 284.8 207.82 284.8 205.68 284.8 170.54 199.54 170.54" fill="teal"/>
  </g>
  <g id="zone-NonPublic">
    <rect id="Graduate_Student_Carrels" x="323.86" y="29.09" width="74.51" height="12.86" fill="#b2ab9a"/>
    <polygon id="Conference_Room_403" points="398.44 315.14 325.28 315.14 325.28 336.11 324.71 336.11 324.71 343.21 379.96 343.21 379.96 337.76 398.44 337.76 398.44 315.14" fill="#b2ab9a"/>
  </g>
  <g id="text">
    <text id="Library_Administration_Offices-lable" transform="translate(336.79 368.58)" fill="#fff" font-family="PublicSans-Bold, &apos;Public Sans&apos;" font-size="8" font-weight="700"><tspan x="0" y="0">Library </tspan><tspan x="0" y="9.6">Administration </tspan><tspan x="0" y="19.2">Offices</tspan></text>
    <text id="Library_Computer-lable" transform="translate(291.65 409.05)" font-family="PublicSans-Bold, &apos;Public Sans&apos;" font-size="6" font-weight="700"><tspan x="0" y="0">Library </tspan><tspan x="0" y="7.2">Computer</tspan></text>
    <text id="Student_Computer_Lab-label" transform="translate(262.3 331.75)" fill="#fff" font-family="PublicSans-Bold, &apos;Public Sans&apos;" font-size="8" font-weight="700"><tspan x="0" y="0">Student </tspan><tspan x="0" y="9.6">Computer Lab</tspan></text>
    <text id="Group_Study_Rooms-label" transform="translate(286.65 146.51)" font-family="PublicSans-Bold, &apos;Public Sans&apos;" font-size="8" font-weight="700"><tspan x="0" y="0">Group </tspan><tspan x="0" y="9.6">Study </tspan><tspan x="0" y="19.2">Rooms</tspan></text>
    <text transform="translate(222.94 338.79)" fill="#fff" font-family="PublicSans-Bold, &apos;Public Sans&apos;" font-size="8" font-weight="700"><tspan x="0" y="0">418</tspan></text>
    <text id="Graduate_Student_Carrels-text" transform="translate(328.58 50.25)" font-family="PublicSans-Bold, &apos;Public Sans&apos;" font-size="7" font-weight="700"><tspan x="0" y="0">Graduate Student </tspan><tspan x="0" y="8.4">Carrels</tspan></text>
    <text transform="translate(370.4 69.91)" fill="#fff" font-family="PublicSans-Bold, &apos;Public Sans&apos;" font-size="8" font-weight="700"><tspan x="0" y="0">E</tspan><tspan x="0" y="78">E</tspan><tspan x="0" y="156">D</tspan><tspan x="0" y="182">C</tspan><tspan x="0" y="208">B</tspan><tspan x="0" y="234">A</tspan></text>
    <text transform="translate(294.32 202.43)" fill="#fff" font-family="PublicSans-Bold, &apos;Public Sans&apos;" font-size="8" font-weight="700"><tspan x="0" y="0">E</tspan><tspan x="0" y="40">F</tspan><tspan x="0" y="80">G</tspan><tspan x="0" y="100">GV</tspan></text>
    <text id="Conference_Room_403_-label" transform="translate(333.1 324.31)" fill="#fff" font-family="PublicSans-Bold, &apos;Public Sans&apos;" font-size="8" font-weight="700"><tspan x="0" y="0">Conference </tspan><tspan x="0" y="9.6">Room 403</tspan></text>
    <text id="RCDS_Label" transform="translate(202.3 182.55)" fill="#fff" font-family="PublicSans-Bold, &apos;Public Sans&apos;" font-size="8" font-weight="700"><tspan x="0" y="0">Research </tspan><tspan x="0" y="9.6">Computing and Data </tspan><tspan x="0" y="19.2">Services (RCDS)</tspan></text>
    <text id="Library_Faculty_and_Staff_Offices-2" data-name="Library_Faculty_and_Staff_Offices" transform="translate(149.3 295.51)" fill="#fff" font-family="PublicSans-Bold, &apos;Public Sans&apos;" font-size="8" font-weight="700"><tspan x="0" y="0">Library Faculty and </tspan><tspan x="0" y="9.6">Staff Offices</tspan></text>
    <text id="BCAT_full_label" transform="translate(82.64 314.71)" font-family="PublicSans-Bold, &apos;Public Sans&apos;" font-size="8" font-weight="700"><tspan x="0" y="0">Boise </tspan><tspan x="0" y="9.6">Cascade </tspan><tspan x="0" y="19.2">Assistive </tspan><tspan x="0" y="28.8">Technology </tspan><tspan x="0" y="38.4">Room</tspan></text>
    <text id="Title" transform="translate(0 25.84)" font-family="PublicSans-Black, &apos;Public Sans&apos;" font-size="30" font-weight="800"><tspan x="0" y="0">Fourth Floor</tspan></text>
    <line x1="120.93" y1="318.45" x2="216.95" y2="332.93" stroke="#000" stroke-miterlimit="10" stroke-width=".5"/>
    <text id="BCAT_abbreviation" transform="translate(219.94 328.67)" fill="#fff" font-family="PublicSans-Bold, &apos;Public Sans&apos;" font-size="8" font-weight="700"><tspan x="0" y="0">BCAT</tspan></text>
    <text id="Subtitle" transform="translate(.38 52.74)" font-family="PublicSans-Light, &apos;Public Sans&apos;" font-size="14" font-weight="300"><tspan x="0" y="0">Quiet Study Floor, Individual Study Areas, </tspan><tspan x="0" y="18">Books A-G</tspan></text>
  </g>
  <g id="Color_Key">
    <g>
      <text transform="translate(.82 178.4)" font-family="PublicSansItalic-Black, &apos;Public Sans&apos;" font-size="8" font-variation-settings="&apos;wght&apos; 900" font-weight="800"><tspan x="0" y="0">Books</tspan></text>
      <ellipse cx="100.4" cy="175.42" rx="6.97" ry="6.16" fill="#034441"/>
    </g>
    <g>
      <ellipse cx="100.4" cy="253.51" rx="6.97" ry="6.16" fill="teal"/>
      <text transform="translate(1.99 255.99)" font-family="PublicSansItalic-Black, &apos;Public Sans&apos;" font-size="8" font-variation-settings="&apos;wght&apos; 900" font-weight="800"><tspan x="0" y="0">Resources</tspan></text>
    </g>
    <g>
      <ellipse cx="100.4" cy="273.03" rx="6.97" ry="6.16" fill="#a94925"/>
      <text transform="translate(1.99 275.52)" font-family="PublicSansItalic-Black, &apos;Public Sans&apos;" font-size="8" font-variation-settings="&apos;wght&apos; 900" font-weight="800"><tspan x="0" y="0">Restrooms</tspan></text>
    </g>
    <g>
      <ellipse cx="100.4" cy="214.47" rx="6.97" ry="6.16" fill="#d7003f"/>
      <text transform="translate(1.49 216.95)" font-family="PublicSansItalic-Black, &apos;Public Sans&apos;" font-size="8" font-variation-settings="&apos;wght&apos; 900" font-weight="800"><tspan x="0" y="0">Individual Study</tspan></text>
    </g>
    <g>
      <ellipse cx="100.4" cy="194.94" rx="6.97" ry="6.16" fill="#9c98ca"/>
      <text transform="translate(1.07 192.43)" font-family="PublicSansItalic-Black, &apos;Public Sans&apos;" font-size="8" font-variation-settings="&apos;wght&apos; 900" font-weight="800"><tspan x="0" y="0">Collaboration &amp; </tspan><tspan x="0" y="10">Presentation Areas</tspan></text>
    </g>
    <text transform="translate(9.46 153.23)" font-family="PublicSansItalic-Black, &apos;Public Sans&apos;" font-size="17" font-variation-settings="&apos;wght&apos; 900" font-weight="800"><tspan x="0" y="0">Color Key</tspan></text>
    <g>
      <ellipse cx="99.98" cy="234.17" rx="6.97" ry="6.16" fill="#552301"/>
      <text transform="translate(1.07 236.65)" font-family="PublicSansItalic-Black, &apos;Public Sans&apos;" font-size="8" font-variation-settings="&apos;wght&apos; 900" font-weight="800"><tspan x="0" y="0">Library Admin</tspan></text>
    </g>
  </g>
  <g id="floor_vector">
    <path d="M322.31,437.39v-12.57l5.44-.07v-1.27l-6.45.08v14.67s5.78,1.11,5.78,1.11l-14.51,39.63-38.35-13.35,8.79-27.29,14.49,4.96,3.77-11.37-.95-.31h0s-5.51-1.97-5.51-1.97l-.34.94,5.54,1.98-3.14,9.46-13.55-4.63,3.13-9.7,3.69,1.32.34-.94-3.72-1.33.42-1.32h.14v-68.09h-14.97v12.18h1v-2.04h5.98v7.36h5.46v47.74h-16.6v-47.74h4.66v-1h-16.49v1h9.85v47.74h-16.72v-56.02h6.37v2.22h1v-2.72h-.5v-.5h-8.35v34.84h-9.61v11.02h-21v1.1h30.62v10.05h-101.01s-.05,0-.08,0c-.18,0-.36,0-.55,0-.82,0-1.65,0-2.47.01-.62,0-1.24,0-1.86,0v2.84h143.26s.84,0,.84,0l-13.14,40.81.33.11-.02.04,39.89,13.88.3-.87,14.94-40.79-6.11-1.17Z"/>
    <rect x="332.65" y="81.5" width="1" height="26.04"/>
    <polyline points="332.75 89.5 328.33 89.5 323.9 89.5" stroke="#000" stroke-miterlimit="10" stroke-width=".25"/>
    <polyline points="332.75 90.68 328.33 90.68 323.9 90.68" stroke="#000" stroke-miterlimit="10" stroke-width=".25"/>
    <polyline points="332.83 91.86 328.4 91.86 323.98 91.86" stroke="#000" stroke-miterlimit="10" stroke-width=".25"/>
    <polyline points="332.83 88.32 328.4 88.32 323.98 88.32" stroke="#000" stroke-miterlimit="10" stroke-width=".25"/>
    <polyline points="341.96 84.83 337.53 84.83 333.11 84.83" stroke="#000" stroke-miterlimit="10" stroke-width=".25"/>
    <polyline points="341.96 86.01 337.53 86.01 333.11 86.01" stroke="#000" stroke-miterlimit="10" stroke-width=".25"/>
    <polyline points="342.04 87.19 337.61 87.19 333.18 87.19" stroke="#000" stroke-miterlimit="10" stroke-width=".25"/>
    <polyline points="342.04 88.32 337.61 88.32 333.18 88.32" stroke="#000" stroke-miterlimit="10" stroke-width=".25"/>
    <polyline points="229.3 411.93 229.3 417.56 229.3 423.15" stroke="#000" stroke-miterlimit="10" stroke-width=".25"/>
    <polyline points="228.24 422.64 228.24 417.05 228.24 411.42" stroke="#000" stroke-miterlimit="10" stroke-width=".25"/>
    <polyline points="231.42 422.9 231.42 417.3 231.42 411.67" stroke="#000" stroke-miterlimit="10" stroke-width=".25"/>
    <polyline points="230.36 422.39 230.36 416.79 230.36 411.16" stroke="#000" stroke-miterlimit="10" stroke-width=".25"/>
    <path d="M291.31,471.18l-.23-.08,3.4-10.71-2.2-.78-3.42,10.78-.23-.08,3.42-10.78-7.59-2.71,2.12-6.73.23.08-2.05,6.49,10.02,3.57-3.47,10.95ZM286.41,469.59l-.23-.08,3.43-10.83.23.08-3.43,10.83ZM283.95,468.79l-.23-.08,3.44-10.83.23.08-3.44,10.83ZM296.68,453.3l-3.06-1.01,3.13-9.98v-.03s-.22-.08-.22-.08l-3.14,10.02-2.03-.67,3.13-10.01-.23-.08-3.12,9.95-.02.06-2.03-.67,3.13-10-.23-.08-3.13,10-2.03-.67,3.13-10-.23-.08-3.17,10.12-.04.12,10.07,3.34.07-.24Z"/>
    <polyline points="323.33 74.35 342.04 74.35 342.04 107.55 332.65 107.55" fill="none" stroke="#000" stroke-miterlimit="10"/>
    <polyline points="230.89 400.17 230.89 405.8 230.89 411.4" stroke="#000" stroke-miterlimit="10" stroke-width=".25"/>
    <polyline points="229.83 411.4 229.83 405.8 229.83 400.17" stroke="#000" stroke-miterlimit="10" stroke-width=".25"/>
    <polyline points="233 411.4 233 405.8 233 400.17" stroke="#000" stroke-miterlimit="10" stroke-width=".25"/>
    <polyline points="231.95 411.4 231.95 405.8 231.95 400.17" stroke="#000" stroke-miterlimit="10" stroke-width=".25"/>
    <path d="M393.77,424.12c-20.63-.12-41.26-.12-61.89-.14" fill="none" stroke="#000" stroke-miterlimit="10"/>
    <rect x="339.04" y="99.9" width="10.45" height="25.96"/>
    <polygon points="324.71 389.78 324.71 388 324.71 387.56 324.71 384.12 317.75 384.12 317.75 388 319.1 388 319.1 408.42 324.71 408.42 332.29 408.42 338.67 389.89 324.71 389.78"/>
    <rect x="317.75" y="349.81" width="6.96" height="8.79"/>
    <polyline points="249.44 249.64 249.44 315.14 212.78 315.14 212.78 355.44 249.44 355.44" fill="none" stroke="#000" stroke-miterlimit="10"/>
    <line x1="249.44" y1="341.16" x2="249.44" y2="315.14" fill="none" stroke="#000" stroke-miterlimit="10"/>
    <line x1="212.78" y1="386.55" x2="212.78" y2="422.64" fill="none" stroke="#000" stroke-miterlimit="10"/>
    <rect x="220.3" y="386.55" width="27.7" height="15.05" stroke="#000" stroke-miterlimit="10"/>
    <polyline points="212.78 355.44 212.78 378.13 239.49 378.13 239.49 362.07" fill="none" stroke="#000" stroke-miterlimit="10"/>
    <polyline points="199.54 170.54 199.54 208.08 249.44 208.08 249.44 242.83" fill="none" stroke="#000" stroke-miterlimit="10"/>
    <polyline points="248 235.65 284.8 235.65 284.8 170.54" fill="none" stroke="#000" stroke-miterlimit="10"/>
    <line x1="293.6" y1="188.39" x2="307.5" y2="188.39" fill="none" stroke="#000" stroke-miterlimit="10"/>
    <line x1="298.7" y1="170.02" x2="298.7" y2="188.39" fill="none" stroke="#000" stroke-miterlimit="10"/>
    <line x1="319.75" y1="170.05" x2="319.75" y2="194.06" fill="none" stroke="#000" stroke-miterlimit="10"/>
    <polyline points="332.65 41.95 335.59 41.95 335.59 28.6" fill="none" stroke="#000" stroke-miterlimit="10"/>
    <polyline points="347.72 29 347.72 41.95 341.96 41.95" fill="none" stroke="#000" stroke-miterlimit="10"/>
    <polyline points="360.79 29 360.79 41.95 353.95 41.95 367.33 41.95" fill="none" stroke="#000" stroke-miterlimit="10"/>
    <polyline points="373.24 29 373.24 41.95 380.7 41.95" fill="none" stroke="#000" stroke-miterlimit="10"/>
    <path d="M387.3,29.33v12.62" fill="none" stroke="#000" stroke-miterlimit="10"/>
    <line x1="393.75" y1="41.95" x2="398.38" y2="41.95" fill="none" stroke="#000" stroke-miterlimit="10"/>
    <line x1="323.9" y1="41.95" x2="326.99" y2="41.95" fill="none" stroke="#000" stroke-miterlimit="10"/>
    <line x1="324.45" y1="315.14" x2="399" y2="315.14" fill="none" stroke="#000" stroke-miterlimit="10"/>
    <polyline points="398.72 338.21 379.46 338.21 379.46 343.35" fill="none" stroke="#000" stroke-miterlimit="10"/>
    <line x1="372.18" y1="343.21" x2="347.7" y2="343.21" fill="none" stroke="#000" stroke-miterlimit="10"/>
    <line x1="324.71" y1="322.48" x2="324.71" y2="408.42" fill="none" stroke="#000" stroke-miterlimit="10"/>
    <line x1="339.77" y1="343.21" x2="324.71" y2="343.21" fill="none" stroke="#000" stroke-miterlimit="10" stroke-width=".5"/>
    <polyline points="398.89 28.6 398.89 44.92 398.89 424.34 324.71 424.3 324.71 414.9" fill="none" stroke="#000" stroke-miterlimit="10"/>
    <path d="M399,29.09c-25-.09-50-.09-75-.09v142h-181c0,83,0,166-.41,248.88v5.52" fill="none" stroke="#000" stroke-miterlimit="10"/>
  </g>
</svg>