<?xml version="1.0" encoding="UTF-8"?>
<svg xmlns="http://www.w3.org/2000/svg" viewBox="0 0 472.42 491.02">
  <g id="zone-Collaboration">
    <rect id="Group_Study_Space" x="76.44" y="328.14" width="150.53" height="31.85" fill="#9d99d1" stroke="#000" stroke-miterlimit="10"/>
    <text id="Tutoring" transform="translate(101.95 344.2)" font-family="PublicSans-Bold, &apos;Public Sans&apos;" font-size="8" font-weight="700"><tspan x="0" y="0">Group Study Space</tspan></text>
  </g>
  <g id="zone-NonPublic">
    <rect id="Tutoring_Staff_Lounge" x="153.7" y="197.51" width="20.89" height="35.1" fill="#b2ab9a"/>
    <polyline id="Library_Staff_Lounge" points="176.11 374.66 172.25 374.66 172.25 411.44 172.25 433.66 106.47 433.66 106.47 374.66 172.25 374.66" fill="#b2ab9a"/>
    <polygon id="Staff_Elevator" points="137.14 197.51 137.14 247.1 174.13 247.1 174.13 232.61 158.12 232.61 158.12 220.39 153.7 220.39 153.7 197.51 137.14 197.51" stroke="#000" stroke-miterlimit="10"/>
    <rect id="Utility_Closet" x="303.59" y="89.92" width="12.35" height="25.85"/>
  </g>
  <g id="zone-Study">
    <rect id="Individual_Study_Space" x="61.35" y="225.54" width="5.76" height="148.85" fill="#d7003f"/>
  </g>
  <g id="zone-Service">
    <rect id="Vandal_Drop_In_Tutoring" x="291.03" y="213.59" width="75.12" height="71.52" fill="#f1b300"/>
    <rect id="Instruction_Room_212A" x="61.59" y="374.39" width="46.32" height="60.48" fill="#f1b300"/>
    <rect id="Research_Help_Desk" x="270.15" y="364.79" width="32.64" height="6" fill="#f1b300"/>
    <rect id="Writing_Center" x="183.03" y="374.15" width="28.26" height="37.3" fill="#f1b300"/>
  </g>
  <g id="zone-Resources">
    <rect id="Dual_Monitor_Student_Computer_Lab" x="317.67" y="40.55" width="43.2" height="95.52" fill="teal"/>
    <polygon id="CDIL" points="173.25 285.45 173.25 247.1 137.14 247.1 137.14 285.45 123.7 285.45 123.7 323.27 175.13 323.27 175.13 285.45 173.25 285.45" fill="teal"/>
    <rect id="Newspapers" x="144.05" y="178.81" width="33.38" height="4.62" fill="teal"/>
    <rect id="Exhibit" x="250.57" y="385.4" width="6.09" height="42.91" fill="teal"/>
    <rect id="DVDs" x="239.04" y="299.96" width="44.31" height="22.11" fill="teal"/>
  </g>
  <g id="zone-Books">
    <rect id="Travel_Guides" x="283.83" y="350.39" width="25.92" height="5.76" fill="#034441"/>
    <polygon id="Books_T_to_Z" points="67.83 177.59 67.83 213.29 72.63 213.29 72.63 309.35 115.49 309.35 115.49 276 126.63 275.92 126.63 188.94 112.69 188.86 112.62 177.59 67.83 177.59" fill="#034441"/>
  </g>
  <g id="zone-Periodicals">
    <rect id="Periodicals_A_to_HC" x="291.03" y="23.99" width="73.68" height="11.52" fill="gray"/>
    <rect id="Periodicals_TN_to_Z" x="141.99" y="101.51" width="37.68" height="72.48" fill="gray"/>
    <rect id="Periodicals_QK_to_TN" x="183.03" y="101.51" width="44.64" height="220.56" fill="gray"/>
    <rect id="Periodicals_N_to_QK" x="238.71" y="101.51" width="44.64" height="193.38" fill="gray"/>
    <rect id="Periodicals_HD_to_N" x="300.87" y="142.79" width="60" height="62.4" fill="gray"/>
  </g>
  <g id="zone-Restrooms">
    <polygon id="Mens" points="243.47 385.47 243.47 378.23 235.75 378.23 235.75 385.47 230.03 385.47 230.03 433.99 247.96 433.99 247.96 385.47 243.47 385.47" fill="#ab4700"/>
    <polygon id="Womens" points="219.66 385.37 219.66 377.81 219.23 377.81 219.23 376.81 211.93 377.81 211.93 378.23 211.93 385.37 211.93 385.79 211.93 435.99 229.25 435.99 229.25 385.37 219.66 385.37" fill="#ab4700"/>
    <g id="RestroomIcons">
      <path d="M217.58,403.06c0,.22-.06.36-.2.52-.14.15-.21.2-.4.25-.21.06-.4.03-.6-.1-.33-.19-.47-.64-.31-1,.13-.28.41-.46.72-.46.24,0,.39.06.56.23.17.18.23.32.23.55Z" fill="#fff"/>
      <path d="M219.02,407.21c0,.16-.1.3-.25.34-.11.03-.27-.02-.34-.12-.03-.04-.19-.53-.35-1.1s-.31-1.05-.32-1.08c0-.03-.04-.04-.1-.04-.05,0-.08,0-.08.01s.24.82.52,1.81c.29.99.52,1.81.52,1.81s-.22.01-.49.01h-.49v1.45c-.01,1.42-.01,1.45-.06,1.51-.13.18-.31.22-.5.13-.21-.11-.2-.03-.2-1.66v-1.43h-.22v1.43c0,1.56,0,1.54-.14,1.64-.09.07-.28.09-.38.04-.1-.05-.18-.14-.21-.24-.01-.05-.02-.64-.02-1.48v-1.39h-.49c-.27,0-.49,0-.49-.01,0,0,.98-3.42,1.04-3.6.01-.03,0-.04-.07-.04h-.08l-.25.86c-.39,1.31-.39,1.31-.48,1.4-.07.07-.1.08-.2.08-.21,0-.35-.14-.35-.33,0-.09.71-2.44.79-2.58.13-.26.44-.49.75-.54.17-.03,1.23-.03,1.4,0,.29.05.6.27.75.53.08.13.79,2.47.79,2.6Z" fill="#fff"/>
      <path d="M226.44,410.48c-.5.89-1.6,1.52-2.88,1.52-1.75,0-3.17-1.15-3.17-2.56,0-.92.6-1.71,1.5-2.16l.05.63c-.53.37-.88.92-.88,1.53,0,1.12,1.12,2.02,2.5,2.02,1.2,0,2.2-.69,2.44-1.61l.45.62Z" fill="#fff"/>
      <path d="M227.78,410.82c-.23.11-.54.04-.68-.14l-1.12-1.56h-2.73c-.45,0-.82-.26-.86-.62l-.15-2.07c-.02-.36.32-.67.77-.7.45-.02.83.26.86.62l.05.58h1.58c.21,0,.38.14.38.31s-.17.3-.38.31h-1.53l.02.51h2.11c.16,0,.32.07.41.19l1.44,2.01c.13.2.06.43-.17.54Z" fill="#fff"/>
      <path d="M223.3,405.53c-.18.04-.24.04-.42,0-.18-.04-.28-.09-.41-.21-.29-.25-.28-.65,0-.91.35-.31.99-.29,1.3.05.36.4.12.94-.47,1.07Z" fill="#fff"/>
      <path d="M244.4,411.43c-.44.79-1.41,1.34-2.55,1.34-1.55,0-2.8-1.02-2.8-2.27,0-.81.53-1.52,1.32-1.92l.04.56c-.47.33-.78.81-.78,1.36,0,.99.99,1.79,2.22,1.79,1.07,0,1.95-.61,2.16-1.42l.39.55Z" fill="#fff"/>
      <path d="M245.59,411.74c-.21.1-.48.04-.6-.12l-.99-1.38h-2.42c-.39,0-.73-.23-.76-.55l-.13-1.83c-.02-.32.28-.6.68-.62.4-.02.73.23.76.55l.05.52h1.4c.19,0,.34.12.34.27s-.15.27-.34.28h-1.36l.02.46h1.87c.14,0,.28.06.36.17l1.27,1.78c.12.17.06.38-.15.48Z" fill="#fff"/>
      <path d="M241.63,407.05c-.16.03-.21.03-.37,0-.16-.03-.25-.08-.37-.18-.25-.22-.25-.58,0-.81.31-.28.88-.26,1.15.05.32.35.11.84-.42.95Z" fill="#fff"/>
      <path d="M235.88,402.91c-.19.05-.26.05-.45,0-.19-.05-.3-.12-.44-.27-.31-.33-.31-.87,0-1.21.38-.42,1.07-.38,1.4.07.39.53.13,1.25-.51,1.42Z" fill="#fff"/>
      <path d="M237.77,405.77c0,1.42,0,1.53-.05,1.62-.14.26-.56.26-.68,0-.04-.09-.05-.22-.05-1.43v-1.33h-.17v3.62s-.01,3.62-.01,3.62l-.08.13c-.21.36-.8.31-.94-.07-.02-.05-.03-.77-.03-2.23v-2.15h-.17v2.07c0,1.38-.01,2.11-.03,2.21-.04.17-.14.3-.29.37-.13.06-.33.07-.45.01-.1-.05-.22-.17-.26-.28-.02-.05-.03-1.21-.03-3.69v-3.61h-.2v1.35c0,1.3,0,1.35-.06,1.44-.14.24-.54.22-.68-.02-.05-.09-.05-.18-.04-1.7,0-1.57,0-1.61.07-1.75.13-.32.39-.57.7-.69.15-.06.22-.06,1.21-.07,1.12,0,1.31,0,1.56.12.19.09.43.31.53.49.16.29.16.33.16,1.99Z" fill="#fff"/>
    </g>
  </g>
  <g id="text">
    <text id="Subtitle" font-family="PublicSans-Light, &apos;Public Sans&apos;" font-size="14" font-weight="300"><tspan x="0" y="48.54">Research Help Desk, Magazines &amp; </tspan><tspan x="0" y="66.54">Journals: Periodicals A-Z, DVDs, Books </tspan><tspan x="0" y="84.54">T-Z, Travel Guides, Drop-In Tutoring, and </tspan><tspan x="0" y="102.54">The Writing Center</tspan></text>
    <text id="DualMonitor_Computer_Lab" transform="translate(321.35 48.28)" fill="#fff" font-family="PublicSans-Bold, &apos;Public Sans&apos;" font-size="7" font-weight="700"><tspan x="0" y="0">Dual </tspan><tspan x="0" y="8.4">Monitor </tspan><tspan x="0" y="16.8">Student </tspan><tspan x="0" y="25.2">Computer </tspan><tspan x="0" y="33.6">Lab</tspan></text>
    <text id="CDIL-text" transform="translate(143.21 260.28)" fill="#fff" font-family="PublicSans-Bold, &apos;Public Sans&apos;" font-size="7" font-weight="700"><tspan x="0" y="0">Center </tspan><tspan x="6.7" y="8.4">for </tspan><tspan x=".2" y="16.8">Digital </tspan><tspan x="-.38" y="25.2">Inquiry </tspan><tspan x="5.35" y="33.6">and </tspan><tspan x="-3.39" y="42">Learning </tspan><tspan x=".95" y="50.4">(CDIL)</tspan></text>
    <text transform="translate(76.31 187.24)" fill="#fff" font-family="PublicSans-Bold, &apos;Public Sans&apos;" font-size="7" font-weight="700"><tspan x="0" y="0">Books </tspan><tspan x="0" y="13">Z</tspan><tspan x="0" y="26">U</tspan><tspan x="0" y="39">TS</tspan><tspan x="0" y="52">TK</tspan><tspan x="0" y="65">TN</tspan><tspan x="0" y="78">TH</tspan><tspan x="0" y="91">TD</tspan><tspan x="0" y="104">TA</tspan><tspan x="0" y="117">T</tspan></text>
    <text transform="translate(186.23 109)" fill="#fff" font-family="PublicSans-Bold, &apos;Public Sans&apos;" font-size="7" font-weight="700"><tspan x="0" y="0">Per QK</tspan><tspan x="0" y="30">QP</tspan><tspan x="0" y="60">R</tspan><tspan x="0" y="90">S</tspan><tspan x="0" y="120">SB</tspan><tspan x="0" y="150">SF</tspan><tspan x="0" y="180">TA</tspan><tspan x="0" y="210">TN</tspan></text>
    <text transform="translate(253.91 109)" fill="#fff" font-family="PublicSans-Bold, &apos;Public Sans&apos;" font-size="7" font-weight="700"><tspan x="0" y="0">Per QK</tspan><tspan x="0" y="26">QD</tspan><tspan x="0" y="52">QA</tspan><tspan x="0" y="78">Q</tspan><tspan x="0" y="104">PS</tspan><tspan x="0" y="130">P</tspan><tspan x="0" y="156">NK</tspan><tspan x="0" y="182">N</tspan></text>
    <text transform="translate(145.91 109)" fill="#fff" font-family="PublicSans-Bold, &apos;Public Sans&apos;" font-size="7" font-weight="700"><tspan x="0" y="0">Per Z</tspan><tspan x="0" y="22">TR</tspan><tspan x="0" y="44">TN</tspan></text>
    <text transform="translate(305.75 150.28)" fill="#fff" font-family="PublicSans-Bold, &apos;Public Sans&apos;" font-size="7" font-weight="700"><tspan x="0" y="0">Per HD</tspan><tspan x="0" y="11">HG</tspan><tspan x="0" y="22">L</tspan><tspan x="0" y="33">ML</tspan><tspan x="0" y="44">N</tspan></text>
    <text id="DVDs-text" transform="translate(253.04 314.5)" fill="#fff" font-family="PublicSans-Bold, &apos;Public Sans&apos;" font-size="8" font-weight="700"><tspan x="0" y="0">DVDs</tspan></text>
    <text id="Travel_Guide_Books" transform="translate(282.81 336.3)" font-family="PublicSans-Bold, &apos;Public Sans&apos;" font-size="8" font-weight="700"><tspan x="0" y="0">Travel </tspan><tspan x="0" y="9.6">Guides</tspan></text>
    <text id="Reference_x2F_Research_Help" transform="translate(270.24 379.26)" font-family="PublicSans-Bold, &apos;Public Sans&apos;" font-size="8" font-weight="700"><tspan x="0" y="0">Research </tspan><tspan x="0" y="9.6">Help Desk</tspan></text>
    <text transform="translate(259.36 409.02)" font-family="PublicSans-Bold, &apos;Public Sans&apos;" font-size="8" font-weight="700"><tspan x="0" y="0">Exhibit</tspan><tspan x="0" y="9.6">Space</tspan></text>
    <text transform="translate(114.48 370.66)" font-family="PublicSans-Bold, &apos;Public Sans&apos;" font-size="8" font-weight="700"><tspan x="0" y="0">Gallery Space</tspan></text>
    <text id="Newspaper-text" transform="translate(131.52 190.38)" font-family="PublicSans-Bold, &apos;Public Sans&apos;" font-size="8" font-weight="700"><tspan x="0" y="0">Newspapers</tspan></text>
    <text transform="translate(68.8 416.36)" font-family="PublicSans-Bold, &apos;Public Sans&apos;" font-size="7" font-weight="700"><tspan x="0" y="0">212A</tspan></text>
    <text transform="translate(305.04 31.98)" fill="#fff" font-family="PublicSans-Bold, &apos;Public Sans&apos;" font-size="8" font-weight="700"><tspan x="0" y="0">Per AP - HC</tspan></text>
    <text id="Tutoring-2" data-name="Tutoring" transform="translate(296.87 258.3)" font-family="PublicSans-Bold, &apos;Public Sans&apos;" font-size="8" font-weight="700"><tspan x="0" y="0">Vandal Drop-In </tspan><tspan x="0" y="9.6">Tutoring</tspan></text>
    <text id="InstructionRoom" transform="translate(66.66 398.12)" font-family="PublicSans-Bold, &apos;Public Sans&apos;" font-size="7" font-weight="700"><tspan x="0" y="0">Instruction </tspan><tspan x="0" y="8.4">Room</tspan></text>
    <text id="WritingCenter-text" transform="translate(184.02 388.54)" font-family="PublicSans-Bold, &apos;Public Sans&apos;" font-size="7" font-weight="700"><tspan x="0" y="0">Writing</tspan><tspan x="1.03" y="8.4">Center</tspan></text>
    <text id="Title" transform="translate(0 25.84)" font-family="PublicSans-Black, &apos;Public Sans&apos;" font-size="30" font-weight="800"><tspan x="0" y="0">Second Floor</tspan></text>
  </g>
  <g id="Color_Key">
    <g>
      <text transform="translate(365.87 338.52)" font-family="PublicSansItalic-Black, &apos;Public Sans&apos;" font-size="8" font-variation-settings="&apos;wght&apos; 900" font-weight="800"><tspan x="0" y="0">Books</tspan></text>
      <ellipse cx="465.45" cy="335.54" rx="6.97" ry="6.16" fill="#034441"/>
    </g>
    <g>
      <ellipse cx="465.45" cy="394.1" rx="6.97" ry="6.16" fill="gray"/>
      <text transform="translate(366.79 396.59)" font-family="PublicSansItalic-Black, &apos;Public Sans&apos;" font-size="8" font-variation-settings="&apos;wght&apos; 900" font-weight="800"><tspan x="0" y="0">Periodicals</tspan></text>
    </g>
    <g>
      <ellipse cx="465.45" cy="413.63" rx="6.97" ry="6.16" fill="teal"/>
      <text transform="translate(367.04 416.11)" font-family="PublicSansItalic-Black, &apos;Public Sans&apos;" font-size="8" font-variation-settings="&apos;wght&apos; 900" font-weight="800"><tspan x="0" y="0">Resources</tspan></text>
    </g>
    <g>
      <ellipse cx="465.45" cy="452.67" rx="6.97" ry="6.16" fill="#efb21d"/>
      <text transform="translate(366.12 455.16)" font-family="PublicSansItalic-Black, &apos;Public Sans&apos;" font-size="8" font-variation-settings="&apos;wght&apos; 900" font-weight="800"><tspan x="0" y="0">Service Areas</tspan></text>
    </g>
    <g>
      <ellipse cx="465.45" cy="433.15" rx="6.97" ry="6.16" fill="#ab4700"/>
      <text transform="translate(367.04 435.63)" font-family="PublicSansItalic-Black, &apos;Public Sans&apos;" font-size="8" font-variation-settings="&apos;wght&apos; 900" font-weight="800"><tspan x="0" y="0">Restrooms</tspan></text>
    </g>
    <g>
      <ellipse cx="465.45" cy="374.58" rx="6.97" ry="6.16" fill="#d7003f"/>
      <text transform="translate(366.54 377.07)" font-family="PublicSansItalic-Black, &apos;Public Sans&apos;" font-size="8" font-variation-settings="&apos;wght&apos; 900" font-weight="800"><tspan x="0" y="0">Individual Study</tspan></text>
    </g>
    <g>
      <ellipse cx="465.45" cy="355.06" rx="6.97" ry="6.16" fill="#9c98ca"/>
      <text transform="translate(366.12 352.55)" font-family="PublicSansItalic-Black, &apos;Public Sans&apos;" font-size="8" font-variation-settings="&apos;wght&apos; 900" font-weight="800"><tspan x="0" y="0">Collaboration &amp; </tspan><tspan x="0" y="10">Presentation Areas</tspan></text>
    </g>
    <text transform="translate(374.51 313.34)" font-family="PublicSansItalic-Black, &apos;Public Sans&apos;" font-size="17" font-variation-settings="&apos;wght&apos; 900" font-weight="800"><tspan x="0" y="0">Color Key</tspan></text>
  </g>
  <g id="floorvector">
    <path d="M342.4,372.98c-.52-5.28-1.98-10.72-4.22-15.71-2.1-4.7-4.9-9.04-8.3-12.92l-1.35-1.61.12-.4c-.35,0-.7,0-1.05,0l-.3.95.51.16,1,1.2h0c.08.1.16.19.25.29l.09.1h0c3.32,3.8,6.06,8.04,8.12,12.64,2.2,4.9,3.63,10.23,4.14,15.4.33,3.31.3,6.9-.09,10.39-.26,2.36-.87,7.88-3.69,14.16-1.66,3.68-3.41,6.2-5.11,8.63-1.47,2.1-3.48,4.99-6.79,8.2-2.53,2.46-5.34,4.65-8.36,6.51-3.55,2.19-7.55,4.01-11.26,5.1-2.13.63-4.32,1.1-6.51,1.41l.14.99c2.24-.31,4.48-.79,6.65-1.44,3.79-1.12,7.88-2.97,11.5-5.21,3.08-1.9,5.95-4.14,8.53-6.65,3.37-3.28,5.42-6.2,6.91-8.34,1.72-2.47,3.51-5.03,5.2-8.79,2.89-6.43,3.51-12.06,3.78-14.46.39-3.55.42-7.22.09-10.59Z"/>
    <path d="M285.19,448.18v-17.39h5.44v-1h-6.45v1h0v18.22l5.77,1.11-14.51,39.63-38.35-13.35,8.79-27.29,14.49,4.96,3.77-11.37-.95-.31h0s-5.51-1.97-5.51-1.97l-.34.94,5.54,1.98-3.14,9.46-13.55-4.63,3.13-9.7,3.69,1.32.34-.94-3.72-1.33.42-1.32h.14v-68.09h-14.97v12.18h1v-2.04h5.98v7.36h5.46v47.74h-16.6v-47.74h4.66v-1h-16.49v1h9.85v47.74h-16.72v-56.02h6.37v2.22h1v-2.72h-.5v-.5h-8.35v34.84h-9.61v11.02h-21v1.1h30.62v10.05h-104.4c-.33.01-.66-.01-1,0h-37.09c-.01.95-.02,1.9-.03,2.85h179.82s.84,0,.84,0l-13.14,40.81.33.11-.02.04,39.89,13.88.3-.87,14.94-40.79-6.11-1.17Z"/>
    <rect x="298.19" y="67.98" width="1" height="26.04"/>
    <polyline points="298.3 75.97 293.87 75.97 289.45 75.97" stroke="#000" stroke-miterlimit="10" stroke-width=".25"/>
    <polyline points="298.3 77.15 293.87 77.15 289.45 77.15" stroke="#000" stroke-miterlimit="10" stroke-width=".25"/>
    <polyline points="298.38 78.33 293.95 78.33 289.53 78.33" stroke="#000" stroke-miterlimit="10" stroke-width=".25"/>
    <polyline points="298.38 74.79 293.95 74.79 289.53 74.79" stroke="#000" stroke-miterlimit="10" stroke-width=".25"/>
    <polyline points="307.51 71.3 303.08 71.3 298.65 71.3" stroke="#000" stroke-miterlimit="10" stroke-width=".25"/>
    <polyline points="307.51 72.48 303.08 72.48 298.65 72.48" stroke="#000" stroke-miterlimit="10" stroke-width=".25"/>
    <polyline points="307.59 73.66 303.16 73.66 298.73 73.66" stroke="#000" stroke-miterlimit="10" stroke-width=".25"/>
    <polyline points="307.59 74.79 303.16 74.79 298.73 74.79" stroke="#000" stroke-miterlimit="10" stroke-width=".25"/>
    <polyline points="192.18 423.2 192.18 428.83 192.18 434.43" stroke="#000" stroke-miterlimit="10" stroke-width=".25"/>
    <polyline points="191.12 433.92 191.12 428.32 191.12 422.69" stroke="#000" stroke-miterlimit="10" stroke-width=".25"/>
    <polyline points="194.3 434.17 194.3 428.57 194.3 422.94" stroke="#000" stroke-miterlimit="10" stroke-width=".25"/>
    <polyline points="193.24 433.66 193.24 428.06 193.24 422.43" stroke="#000" stroke-miterlimit="10" stroke-width=".25"/>
    <path d="M254.19,482.45l-.23-.08,3.4-10.71-2.2-.78-3.42,10.78-.23-.08,3.42-10.78-7.59-2.71,2.12-6.73.23.08-2.05,6.49,10.02,3.57-3.47,10.95ZM249.29,480.86l-.23-.08,3.43-10.83.23.08-3.43,10.83ZM246.83,480.07l-.23-.08,3.44-10.83.23.08-3.44,10.83ZM259.56,464.57l-3.06-1.01,3.13-9.98v-.03s-.22-.08-.22-.08l-3.14,10.02-2.03-.67,3.13-10.01-.23-.08-3.12,9.95-.02.06-2.03-.67,3.13-10-.23-.08-3.13,10-2.03-.67,3.13-10-.23-.08-3.17,10.12-.04.12,10.07,3.34.07-.24Z"/>
    <polyline points="136.72 176.63 136.72 173.23 136.72 99.45 288.87 99.45 288.87 22.31 366.43 22.31 365.24 285.51 345.05 285.51 299.74 428.46 284.18 430.78" fill="none" stroke="#000" stroke-miterlimit="10"/>
    <polyline points="136.72 173.23 62.25 172.78 62.25 434.2 70.4 434.2" fill="none" stroke="#000" stroke-miterlimit="10"/>
    <polyline points="288.87 60.82 307.59 60.82 307.59 94.02 298.19 94.02" fill="none" stroke="#000" stroke-miterlimit="10"/>
    <polyline points="193.77 411.44 193.77 417.07 193.77 422.67" stroke="#000" stroke-miterlimit="10" stroke-width=".25"/>
    <polyline points="192.71 422.67 192.71 417.07 192.71 411.44" stroke="#000" stroke-miterlimit="10" stroke-width=".25"/>
    <polyline points="195.88 422.67 195.88 417.07 195.88 411.44" stroke="#000" stroke-miterlimit="10" stroke-width=".25"/>
    <polyline points="194.83 422.67 194.83 417.07 194.83 411.44" stroke="#000" stroke-miterlimit="10" stroke-width=".25"/>
    <polyline points="182.55 374.66 182.55 411.44 210.88 411.44" fill="none" stroke="#000" stroke-miterlimit="10"/>
    <line x1="179.24" y1="411.44" x2="182.55" y2="411.44" fill="none" stroke="#000" stroke-miterlimit="10"/>
    <polyline points="175.13 294.82 175.13 323.27 123.7 323.27 123.7 294.82" fill="none" stroke="#000" stroke-miterlimit="10"/>
    <polyline points="123.7 288.92 123.7 285.45 137.27 285.45 137.14 247.1 173.7 247.1 173.7 285.28 175.13 285.28" fill="none" stroke="#000" stroke-miterlimit="10"/>
    <line x1="211.29" y1="374.35" x2="191.46" y2="374.35" fill="#ab4700" stroke="#000" stroke-miterlimit="10"/>
    <line x1="211.38" y1="373.85" x2="211.38" y2="376.4" fill="#ab4700" stroke="#000" stroke-miterlimit="10"/>
    <line x1="182.02" y1="374.35" x2="185.62" y2="374.35" fill="#ab4700" stroke="#000" stroke-miterlimit="10"/>
    <polyline points="153.7 197.51 174.59 197.51 174.59 225.54" fill="none" stroke="#000" stroke-miterlimit="10"/>
    <polyline points="73.91 374.66 106.47 374.66 172.25 374.66 172.25 433.66 106.47 433.33" fill="none" stroke="#000" stroke-miterlimit="10"/>
    <line x1="106.47" y1="374.66" x2="106.47" y2="433.66" fill="none" stroke="#000" stroke-miterlimit="10"/>
  </g>
</svg>